M48
INCH,TZ
VER,1
FMAT,2
DETECT,ON
ATC,ON
T1C0.0350
T2C0.0392
T3C0.0333
T4C0.0236
%
T1
X11400Y8200
X12400
X10400
X11435Y11081
X12435
X10435
X17600Y7000
X16600
X2200
X1200
X2001Y28599
X3001
X2576Y24646
Y18646
Y15646
Y14646
Y16646
Y17646
Y21646
Y19646
Y20646
Y23646
Y22646
Y26646
Y25646
X9800Y13600
X12800
X14783Y15666
Y21666
Y24666
Y25666
Y23666
Y22666
Y18666
Y20666
Y19666
Y16666
Y17666
Y13666
Y14666
X5200Y23800
Y18800
Y17800
Y19800
Y21800
Y20800
Y22800
X13000Y17800
Y20800
X12000
X10200Y18800
Y21800
Y20800
Y19800
Y17800
X16000Y28600
X17000
X10200Y27600
X7200
X10200Y29600
X7200
X11400Y3400
X12400
X10400
X11400Y6000
X12400
X10400
X11400Y1200
X12400
X10400
T2
X13400Y8200
X13435Y11081
X18600Y7000
X3200
X1001Y28599
X2576Y13650
X8800Y13600
X11800
X14783Y26666
X5200Y16800
X10200Y22800
X15000Y28600
X13400Y3400
Y6000
Y1200
X5200Y8400
X4500Y3500
X7800Y4800
X9100Y10000
X1200Y8200
X15900Y16800
X11700Y14800
X16200Y20300
X17200Y9200
X2200Y10500
X4000Y26700
X13400Y25700
X7600Y23800
T3
X12000Y17800
T4
X8800Y25900
X10200Y16400
M30
